<?xml version="1.0" encoding="utf-8"?>
<!-- Generator: Adobe Illustrator 17.0.0, SVG Export Plug-In . SVG Version: 6.00 Build 0)  -->
<!DOCTYPE svg PUBLIC "-//W3C//DTD SVG 1.1//EN" "http://www.w3.org/Graphics/SVG/1.1/DTD/svg11.dtd">
<svg version="1.1" id="Layer_1" xmlns="http://www.w3.org/2000/svg" xmlns:xlink="http://www.w3.org/1999/xlink" x="0px" y="0px"
	 width="400px" height="200px" viewBox="0 0 400 200" enable-background="new 0 0 400 200" xml:space="preserve">
<g>
	<g>
		<path fill="#231F20" d="M45.398,171.433H29.695c-2.379,0-4.419-0.747-6.118-2.24c-1.699-1.493-2.548-3.412-2.548-5.755v-21.643
			h5.598v21.634c0,1.764,1.021,2.645,3.06,2.645h17.515L45.398,171.433z"/>
		<path fill="#231F20" d="M138.335,147.105h-26.345c-0.746,0-1.441,0.273-2.085,0.82c-0.644,0.545-0.966,1.176-0.966,1.893v1.482
			c0,1.774,1.019,2.659,3.061,2.659h17.659c2.381,0,4.405,0.714,6.073,2.141c1.735,1.528,2.603,3.464,2.603,5.807v1.528
			c0,2.241-0.882,4.134-2.646,5.681c-1.763,1.544-3.764,2.316-6.001,2.316h-26.349v-5.309h26.345c0.746,0,1.441-0.262,2.085-0.787
			c0.644-0.524,0.967-1.16,0.967-1.904v-1.523c0-1.76-1.021-2.641-3.062-2.641h-17.659c-2.381,0-4.422-0.74-6.124-2.222
			c-1.702-1.481-2.552-3.398-2.552-5.749v-1.481c0-2.214,0.882-4.105,2.645-5.672c1.763-1.566,3.764-2.351,6.002-2.351h26.349
			V147.105z"/>
		<path fill="#231F20" d="M179.227,151.399c0,2.383-0.842,4.307-2.525,5.77c-1.682,1.465-3.73,2.196-6.143,2.196h-20.294v-5.453
			h20.302c2.04,0,3.061-0.836,3.061-2.508v-1.586c0-1.808-1.019-2.713-3.055-2.713h-21.997v24.328h-5.599v-29.638h27.583
			c2.413,0,4.462,0.75,6.144,2.248c1.682,1.498,2.524,3.422,2.524,5.771V151.399z"/>
		<path fill="#231F20" d="M218.22,163.438c0,2.343-0.85,4.262-2.551,5.755c-1.699,1.493-3.74,2.24-6.119,2.24h-18.717
			c-2.38,0-4.42-0.747-6.12-2.24c-1.7-1.493-2.55-3.412-2.55-5.755V149.79c0-2.206,0.883-4.089,2.651-5.652
			c1.768-1.561,3.774-2.343,6.019-2.343h18.717c2.244,0,4.25,0.782,6.017,2.343c1.768,1.563,2.652,3.446,2.652,5.652V163.438z
			 M212.621,163.431v-13.63c0-0.712-0.323-1.338-0.971-1.882c-0.647-0.543-1.344-0.814-2.091-0.814h-18.734
			c-0.748,0-1.446,0.271-2.092,0.814c-0.648,0.544-0.97,1.169-0.97,1.882v13.63c0,1.762,1.02,2.643,3.062,2.643h18.734
			C211.599,166.075,212.621,165.193,212.621,163.431z"/>
		<path fill="#231F20" d="M259.424,171.433h-5.599v-9.621c0-0.782-0.306-1.384-0.919-1.809c-0.612-0.424-1.325-0.637-2.141-0.637
			h-20.301v-5.453h20.301c2.04,0,3.06-0.836,3.06-2.508v-1.586c0-1.808-1.019-2.713-3.055-2.713h-21.998v24.328h-5.598v-29.638
			h27.583c2.413,0,4.462,0.749,6.144,2.245c1.682,1.496,2.524,3.418,2.524,5.765v1.581c0,1.939-0.733,3.673-2.2,5.203
			c1.467,1.563,2.2,3.299,2.2,5.204V171.433z"/>
		<path fill="#231F20" d="M296.137,147.105h-14.524v24.328h-5.599v-24.328h-14.385v-5.31h34.508V147.105z"/>
		<path fill="#231F20" d="M304.693,171.433h-5.599v-29.638h5.599V171.433z"/>
		<path fill="#231F20" d="M344.564,141.795l-5.609,21.633c-1.36,5.337-4.248,8.005-8.664,8.005h-7.544
			c-4.418,0-7.306-2.664-8.667-7.995l-5.555-21.643h5.981l5.343,20.612c0.642,2.446,1.876,3.667,3.703,3.667h5.883
			c1.893,0,3.162-1.226,3.803-3.681l5.341-20.598H344.564z"/>
		<path fill="#231F20" d="M341.462,171.433l5.609-21.632c1.36-5.337,4.248-8.006,8.664-8.006h7.544c4.418,0,7.306,2.664,8.667,7.995
			l5.555,21.643h-5.981l-5.343-20.611c-0.642-2.446-1.876-3.669-3.703-3.669h-5.883c-1.893,0-3.162,1.226-3.804,3.683l-5.341,20.597
			H341.462z"/>
		<path fill="#231F20" d="M49.534,171.433l5.608-21.632c1.36-5.337,4.248-8.006,8.665-8.006h7.544c4.418,0,7.306,2.664,8.666,7.995
			l5.556,21.643h-5.981l-5.343-20.611c-0.642-2.446-1.876-3.669-3.703-3.669h-5.883c-1.893,0-3.162,1.226-3.804,3.683l-5.341,20.597
			H49.534z"/>
		<g>
			<path d="M359.553,158.104c1.116,0,2.206,0.287,3.27,0.86c1.063,0.574,1.891,1.393,2.484,2.462c0.593,1.066,0.89,2.18,0.89,3.338
				c0,1.147-0.292,2.249-0.877,3.308c-0.584,1.057-1.404,1.881-2.459,2.466c-1.054,0.585-2.157,0.877-3.308,0.877
				c-1.15,0-2.254-0.292-3.308-0.877c-1.055-0.585-1.876-1.409-2.463-2.466c-0.588-1.059-0.881-2.161-0.881-3.308
				c0-1.158,0.298-2.272,0.895-3.338c0.596-1.068,1.426-1.888,2.489-2.462C357.347,158.39,358.437,158.104,359.553,158.104z
				 M359.553,159.204c-0.934,0-1.843,0.241-2.728,0.72c-0.884,0.479-1.576,1.164-2.076,2.055c-0.499,0.892-0.749,1.821-0.749,2.785
				c0,0.959,0.245,1.879,0.736,2.759c0.491,0.879,1.176,1.565,2.059,2.055c0.881,0.492,1.8,0.738,2.758,0.738
				c0.958,0,1.877-0.245,2.759-0.738c0.881-0.49,1.566-1.176,2.054-2.055c0.487-0.88,0.731-1.8,0.731-2.759
				c0-0.964-0.248-1.893-0.745-2.785c-0.497-0.891-1.188-1.576-2.076-2.055C361.39,159.444,360.482,159.204,359.553,159.204z
				 M356.637,168.439v-7.163h2.463c0.842,0,1.452,0.066,1.828,0.198c0.377,0.132,0.677,0.363,0.901,0.693
				c0.224,0.329,0.336,0.68,0.336,1.05c0,0.523-0.188,0.98-0.563,1.368c-0.374,0.388-0.873,0.606-1.493,0.653
				c0.252,0.106,0.455,0.232,0.608,0.38c0.287,0.282,0.639,0.755,1.056,1.419l0.871,1.402h-1.41l-0.635-1.129
				c-0.499-0.887-0.901-1.442-1.204-1.666c-0.212-0.166-0.519-0.248-0.923-0.251h-0.678v3.046H356.637z M357.793,164.406h1.404
				c0.671,0,1.13-0.099,1.374-0.298c0.244-0.201,0.367-0.465,0.367-0.793c0-0.212-0.06-0.4-0.177-0.568
				c-0.117-0.168-0.281-0.293-0.49-0.374c-0.209-0.082-0.595-0.124-1.162-0.124h-1.315V164.406z"/>
		</g>
	</g>
	<g>
		<path fill="#FDBE10" d="M194.871,40.881c-44.936,1.809-80.937,38.932-80.937,84.305c0,1.633,0.05,3.282,0.154,5.04l0.026,0.425
			h0.425h8.596l31.736-36.398l2.256,3.46l10.528-32.938l7.52,7.52l7.069-15.04l3.61,2.557L194.871,40.881z"/>
		<path fill="#FDBE10" d="M278.199,130.651h3.881h0.426l0.025-0.425c0.104-1.758,0.155-3.407,0.155-5.04
			c0-45.661-36.458-82.966-81.793-84.336l24.366,56.561l6.617-5.866l3.761,7.37l7.971-8.121L278.199,130.651z"/>
		<polygon fill="#231F20" points="261.918,130.651 274.438,130.651 243.644,95.006 234.507,104.707 230.897,96.81 224.129,103.353 
			198.298,41.989 186.115,64.775 183.746,61.617 175.287,77.973 169.195,69.851 157.238,107.527 154.08,99.969 126.444,130.651 
			131.294,130.651 152.388,107.527 156.674,121.852 170.436,77.747 176.64,87.561 183.972,68.385 186.792,72.333 198.072,50.449 
			217.023,123.206 229.995,105.609 233.041,113.731 241.726,102.451 		"/>
		<path fill="#231F20" d="M108.294,125.186c0-49.634,40.381-90.015,90.015-90.015c49.634,0,90.015,40.381,90.015,90.015
			c0,1.618-0.047,3.297-0.139,4.989l-0.026,0.475h0.477h5.877h0.43l0.021-0.428c0.087-1.683,0.129-3.378,0.129-5.036
			c0-25.852-10.067-50.156-28.347-68.436c-18.28-18.28-42.584-28.348-68.436-28.348c-25.852,0-50.156,10.068-68.436,28.348
			c-18.28,18.28-28.347,42.584-28.347,68.436c0,1.667,0.044,3.362,0.129,5.036l0.022,0.428h0.428h5.877h0.477l-0.026-0.475
			C108.341,128.475,108.294,126.796,108.294,125.186z"/>
	</g>
</g>
</svg>
